<?xml version="1.0" encoding="UTF-8" standalone="no"?>
<!DOCTYPE svg PUBLIC "-//W3C//DTD SVG 1.1//EN" "http://www.w3.org/Graphics/SVG/1.1/DTD/svg11.dtd">
<svg width="100%" height="100%" viewBox="0 0 775 998" version="1.1"
    xmlns="http://www.w3.org/2000/svg"
    xmlns:xlink="http://www.w3.org/1999/xlink" xml:space="preserve"
    xmlns:serif="http://www.serif.com/" style="fill-rule:evenodd;clip-rule:evenodd;stroke-linejoin:round;stroke-miterlimit:2;">
    <g transform="matrix(1.99764,0,0,1.99764,-107.99,1.88679)">
        <path d="M258.612,-0.945C258.612,-0.945 378.36,138.54 428,258.5C477.64,378.46 387.118,492.583 252.215,498.466C148.601,502.986 43.128,404.57 54.972,292.5C65.492,192.95 95.167,146.04 110.748,125.634C110.748,125.634 130.33,155.788 148.462,170.06C178.983,106.497 217.502,50.973 258.612,-0.945Z" style="fill:url(#_Linear1);fill-rule:nonzero;"/>
    </g>
    <g transform="matrix(1.99764,0,0,1.99764,-101.379,50.0874)">
        <path d="M250.5,81.5C287.193,124.06 320.36,169.393 350,217.5C359.293,233.418 366.959,250.085 373,267.5C385.584,317.008 372.084,357.842 332.5,390C294.216,416.939 252.216,424.939 206.5,414C157.201,398.702 128.701,365.535 121,314.5C119.131,298.409 120.798,282.742 126,267.5C133.418,248.663 142.418,230.663 153,213.5C163,198.833 173,184.167 183,169.5C205.716,140.29 228.216,110.957 250.5,81.5Z" style="fill:rgb(255,151,88);fill-rule:nonzero;"/>
    </g>
    <defs>
        <linearGradient id="_Linear1" x1="0" y1="0" x2="1" y2="0" gradientUnits="userSpaceOnUse" gradientTransform="matrix(-11.5675,498.262,-642.583,-14.9181,259.818,0.204701)">
            <stop offset="0" style="stop-color:rgb(255,136,74);stop-opacity:0.99"/>
            <stop offset="1" style="stop-color:rgb(255,48,0);stop-opacity:0.99"/>
        </linearGradient>
    </defs>
</svg>