<?xml version="1.0" encoding="UTF-8" standalone="no"?>
<!DOCTYPE svg PUBLIC "-//W3C//DTD SVG 1.1//EN" "http://www.w3.org/Graphics/SVG/1.1/DTD/svg11.dtd">
<svg width="100%" height="100%" viewBox="0 0 772 996" version="1.1"
	xmlns="http://www.w3.org/2000/svg"
	xmlns:xlink="http://www.w3.org/1999/xlink" xml:space="preserve"
	xmlns:serif="http://www.serif.com/" style="fill-rule:evenodd;clip-rule:evenodd;stroke-linejoin:round;stroke-miterlimit:2;">
	<g transform="matrix(1.99764,0,0,1.99764,-110.392,1.0977)">
		<path d="M258.835,-0.549C258.835,-0.549 378.371,138.535 428,258.5C476.558,375.877 387.192,494.132 252.215,497.949C148.371,500.885 48.676,411.749 55.602,298.705C59.967,227.465 94.196,147.494 111.74,126.139C111.74,126.139 147.215,172.833 148.651,169.486C164.823,131.777 212.884,56.804 258.835,-0.549Z" style="fill:url(#_Linear1);fill-rule:nonzero;"/>
	</g>
	<g transform="matrix(1.99764,0,0,1.99764,-103.781,49.2984)">
		<path d="M250.5,81.5C287.193,124.06 320.36,169.393 350,217.5C359.293,233.418 366.959,250.085 373,267.5C385.584,317.008 372.084,357.842 332.5,390C294.216,416.939 252.216,424.939 206.5,414C157.201,398.702 128.701,365.535 121,314.5C119.131,298.409 120.798,282.742 126,267.5C133.418,248.663 142.418,230.663 153,213.5C163,198.833 173,184.167 183,169.5C205.716,140.29 228.216,110.957 250.5,81.5Z" style="fill:rgb(255,151,88);fill-rule:nonzero;"/>
	</g>
	<defs>
		<linearGradient id="_Linear1" x1="0" y1="0" x2="1" y2="0" gradientUnits="userSpaceOnUse" gradientTransform="matrix(-11.5675,498.262,-642.583,-14.9181,259.818,0.204701)">
			<stop offset="0" style="stop-color:rgb(255,136,74);stop-opacity:0.99"/>
			<stop offset="1" style="stop-color:rgb(255,48,0);stop-opacity:0.99"/>
		</linearGradient>
	</defs>
</svg>