<?xml version="1.0" encoding="utf-8"?>
<!-- Generator: Adobe Illustrator 25.2.1, SVG Export Plug-In . SVG Version: 6.00 Build 0)  -->
<svg version="1.1"
	xmlns="http://www.w3.org/2000/svg"
	xmlns:xlink="http://www.w3.org/1999/xlink" x="0px" y="0px" viewBox="0 0 968.4 1246.8" style="enable-background:new 0 0 968.4 1246.8;" xml:space="preserve">
	<style type="text/css">
	.st0{fill:url(#SVGID_1_);}
	.st1{display:none;fill:#FFFFFF;stroke:#000000;stroke-miterlimit:10;}
	.st2{display:none;fill:url(#SVGID_2_);}
	.st3{enable-background:new    ;}
	.st4{fill:#FF9859;}
	</style>
	<g id="Shape_1_xA0_Image_1_">
		<g>
			<linearGradient id="SVGID_1_" gradientUnits="userSpaceOnUse" x1="484.2" y1="0" x2="484.2" y2="1246.7999">
				<stop offset="1.246007e-07" style="stop-color:#FF8548"/>
				<stop offset="1" style="stop-color:#FF3303"/>
			</linearGradient>
			<path class="st0" d="M0,794.73c0-6.4,0-12.8,0-19.2c1.3-3.33,1.57-6.86,1.67-10.36c0.37-12.63,1.62-25.19,2.83-37.77
			c1.87-19.43,4.55-38.74,7.58-58.01c4.41-27.97,9.77-55.75,15.91-83.38c2.98-13.42,5.88-26.87,9.64-40.1
			c7.84-27.54,16.8-54.72,26.89-81.52c9.02-23.96,18.84-47.58,30.72-70.28c4.97-9.49,10.17-18.86,15.5-28.15
			c9-15.68,18.62-30.97,28.79-45.91c0.72-1.05,1.51-2.06,2.37-3c0.69-0.76,1.84-0.74,2.57,0.05c0.86,0.93,1.65,1.95,2.39,2.99
			c12.82,17.76,25.88,35.35,39.51,52.51c11.15,14.03,23.02,27.43,35.86,39.94c2.4,2.34,4.9,4.6,7.54,6.66
			c4.74,3.7,7.49,3.71,10.4-2.25c12.06-24.72,25.11-48.93,38.34-73.04c12.77-23.27,25.94-46.31,39.48-69.15
			c10.44-17.61,21.17-35.03,32.15-52.31c11.33-17.81,23-35.4,34.94-52.81c16.19-23.6,32.76-46.94,49.72-70
			c20.08-27.31,40.54-54.34,61.44-81.03c4.83-6.17,9.57-12.4,14.35-18.6c0.32,0,0.64,0,0.96,0c1.58,2.01,3.09,4.08,4.77,6.01
			c6.59,7.62,13.27,15.16,19.85,22.78c17.26,19.96,34.09,40.28,50.68,60.8c17.1,21.14,33.85,42.55,50.14,64.33
			c12.93,17.29,25.64,34.74,38.3,52.23c27.11,37.44,53.43,75.43,79.45,113.63c15.93,23.4,31.59,46.99,47.35,70.5
			c1.87,2.79,3.72,5.6,5.43,8.49c11.33,19.13,22.69,38.24,33.89,57.43c10.64,18.23,20.96,36.65,30.99,55.22
			c6.08,11.26,12.11,22.54,18.07,33.86c9.69,18.4,19.07,36.95,27.6,55.92c8.4,18.68,15.95,37.7,22.74,57.03
			c8.59,24.47,15.95,49.3,21.4,74.66c2.62,12.19,4.92,24.46,5.47,36.97c0.05,1.26,0.47,2.5,0.72,3.75c0,21.12,0,42.23,0,63.35
			c-0.26,1.57-0.74,3.14-0.73,4.71c0.04,5.93-0.52,11.82-1.17,17.7c-0.92,8.26-1.71,16.54-3.31,24.71
			c-4.11,21.07-9.83,41.69-17.09,61.9c-6.99,19.47-15.62,38.16-25.9,56.11c-10.27,17.92-21.58,35.15-33.52,51.99
			c-8.06,11.36-16.69,22.27-26.32,32.35c-13.7,14.34-27.82,28.24-42.78,41.3c-18.85,16.46-39.04,31.04-60.52,43.83
			c-17.59,10.48-35.75,19.92-54.24,28.72c-20.26,9.65-41.11,17.74-62.6,24.15c-40,11.94-80.81,19.33-122.52,21.64
			c-1.42,0.08-2.82,0.48-4.23,0.73c-15.68,0-31.35,0-47.03,0c-1.25-0.25-2.49-0.67-3.75-0.71c-10.56-0.39-21.03-1.67-31.51-2.91
			c-20.68-2.45-41.09-6.31-61.26-11.46c-29.39-7.5-57.63-18.19-85.05-31.07c-21.01-9.86-41.4-20.87-61.08-33.21
			c-23.66-14.82-45.75-31.68-66.19-50.66c-11.48-10.66-22.5-21.81-32.98-33.49c-16.27-18.13-31.11-37.35-44.58-57.63
			c-16.49-24.83-30.84-50.87-43.32-77.92c-5.5-11.91-10.57-24-14.75-36.45c-6.27-18.69-10.96-37.77-14.46-57.16
			c-2.92-16.22-5.1-32.54-5.82-49.03C1.54,801.58,1.32,798.06,0,794.73z"/>
		</g>
		<path class="st1" d="M-72.38,114.53"/>
		<linearGradient id="SVGID_2_" gradientUnits="userSpaceOnUse" x1="233.5122" y1="409.7409" x2="233.5122" y2="409.7409">
			<stop offset="1.246007e-07" style="stop-color:#FF8548"/>
			<stop offset="1" style="stop-color:#FF3203"/>
		</linearGradient>
		<path class="st2" d="M233.51,409.74"/>
	</g>
	<g id="Shape_2_1_" class="st3">
		<g id="Shape_2">
			<g>
				<path class="st4" d="M808.78,757.96c-13.7-62.42-49.9-128.92-49.9-128.92s-17.48-31.93-46.32-77.09
				c-20.12-31.51-46.51-69.47-73.22-107.51C573.65,350.88,497.52,256.8,497.52,256.8s-23.62,30.66-57.62,74.86
				c-34.29,44.57-79.11,102.91-117.97,157.45c-60.57,85.02-104.49,160.8-104.49,160.8s-42.64,76.76-49.17,155.68
				c-5.2,62.88,25.41,131.6,25.41,131.6s27.14,49.99,62.1,84.77c33.4,33.23,74.7,52.75,74.7,52.75s23.38,11.35,57.98,20.06
				c32.3,8.13,74.37,13.78,116.35,10.82c11.64-0.82,52.45-4.51,91.39-17.73c41.35-14.04,80.59-37.63,80.59-37.63
				s59.97-42.8,95.42-92.3c30.41-42.48,38.5-92.74,38.5-92.74S820.9,813.17,808.78,757.96z"/>
			</g>
		</g>
	</g>
</svg>
